<svg width="37" height="39" viewBox="0 0 37 39" fill="none" xmlns="http://www.w3.org/2000/svg">
<g clip-path="url(#clip0_36_250)">
<path d="M25.4375 2.4375C26.0508 2.4375 26.639 2.69431 27.0727 3.15143C27.5064 3.60855 27.75 4.22853 27.75 4.875V34.125C27.75 34.7715 27.5064 35.3915 27.0727 35.8486C26.639 36.3057 26.0508 36.5625 25.4375 36.5625H11.5625C10.9492 36.5625 10.361 36.3057 9.92732 35.8486C9.49364 35.3915 9.25 34.7715 9.25 34.125V4.875C9.25 4.22853 9.49364 3.60855 9.92732 3.15143C10.361 2.69431 10.9492 2.4375 11.5625 2.4375H25.4375ZM11.5625 0C10.3359 0 9.15949 0.513615 8.29213 1.42785C7.42478 2.34209 6.9375 3.58207 6.9375 4.875V34.125C6.9375 35.4179 7.42478 36.6579 8.29213 37.5721C9.15949 38.4864 10.3359 39 11.5625 39H25.4375C26.6641 39 27.8405 38.4864 28.7079 37.5721C29.5752 36.6579 30.0625 35.4179 30.0625 34.125V4.875C30.0625 3.58207 29.5752 2.34209 28.7079 1.42785C27.8405 0.513615 26.6641 0 25.4375 0L11.5625 0Z" fill="black"/>
<path d="M18.5 34.125C19.1133 34.125 19.7015 33.8682 20.1352 33.4111C20.5689 32.954 20.8125 32.334 20.8125 31.6875C20.8125 31.041 20.5689 30.421 20.1352 29.9639C19.7015 29.5068 19.1133 29.25 18.5 29.25C17.8867 29.25 17.2985 29.5068 16.8648 29.9639C16.4311 30.421 16.1875 31.041 16.1875 31.6875C16.1875 32.334 16.4311 32.954 16.8648 33.4111C17.2985 33.8682 17.8867 34.125 18.5 34.125Z" fill="black"/>
</g>
<defs>
<clipPath id="clip0_36_250">
<rect width="37" height="39" fill="white"/>
</clipPath>
</defs>
</svg>
