<svg width="47" height="45" viewBox="0 0 47 45" fill="none" xmlns="http://www.w3.org/2000/svg">
<path d="M42.7023 18.8278H41.1248V18.75H23.4998V26.25H34.5674C32.9527 30.6159 28.614 33.75 23.4998 33.75C17.0109 33.75 11.7498 28.7128 11.7498 22.5C11.7498 16.2872 17.0109 11.25 23.4998 11.25C26.4951 11.25 29.2201 12.3319 31.295 14.0991L36.8341 8.79562C33.3365 5.67469 28.6581 3.75 23.4998 3.75C12.6849 3.75 3.9165 12.1453 3.9165 22.5C3.9165 32.8547 12.6849 41.25 23.4998 41.25C34.3147 41.25 43.0832 32.8547 43.0832 22.5C43.0832 21.2428 42.948 20.0156 42.7023 18.8278Z" fill="#FFC107"/>
<path d="M6.1748 13.7728L12.6089 18.2906C14.3499 14.1637 18.5662 11.25 23.5002 11.25C26.4954 11.25 29.2205 12.3319 31.2953 14.0991L36.8345 8.79562C33.3369 5.67469 28.6584 3.75 23.5002 3.75C15.9782 3.75 9.45501 7.81594 6.1748 13.7728Z" fill="#FF3D00"/>
<path d="M23.5 41.25C28.5584 41.25 33.1546 39.3966 36.6296 36.3825L30.5686 31.4719C28.5364 32.9516 26.0531 33.752 23.5 33.75C18.4064 33.75 14.0814 30.6403 12.452 26.3007L6.06592 31.0116C9.30696 37.0838 15.8889 41.25 23.5 41.25Z" fill="#4CAF50"/>
<path d="M42.7024 18.8278H41.125V18.75H23.5V26.25H34.5675C33.7952 28.3279 32.4039 30.1436 30.5657 31.4728L30.5686 31.4709L36.6296 36.3816C36.2008 36.7547 43.0833 31.875 43.0833 22.5C43.0833 21.2428 42.9482 20.0156 42.7024 18.8278Z" fill="#1976D2"/>
</svg>
